<svg id="Layer_1" xmlns="http://www.w3.org/2000/svg" viewBox="468.6 510.3 290.8 167.5"><style>.st0{fill:none}.st1{fill:#6f0ec7}</style><path class="st0" d="M604.8 605.1c.3-3.1.4-5.8.4-8.1 0-1.5 0-3.3-.1-5.3-.1-1.9-.3-3.9-.7-6-.4-2-.9-4-1.5-5.8s-1.5-3.5-2.5-5c-1-1.4-2.3-2.6-3.7-3.4-1.4-.8-3.2-1.2-5.2-1.2s-3.8.4-5.2 1.2c-1.5.8-2.7 2-3.7 3.4-1 1.5-1.9 3.1-2.5 5s-1.2 3.8-1.5 5.8c-.4 2-.6 4-.7 6-.1 2-.1 3.8-.1 5.3 0 2.3.1 5 .4 8.1.3 3.1.9 6 1.9 8.9.9 2.8 2.4 5.1 4.2 7.1 1.8 1.8 4.1 2.7 7.2 2.7 3.1 0 5.4-.9 7.2-2.7 1.9-1.9 3.3-4.3 4.2-7.1.9-2.8 1.6-5.8 1.9-8.9z"/><path class="st1" d="M544 597.5c1.5-1.6 2.8-3.3 4-5.2 1.2-1.8 2.1-3.8 2.8-5.9.7-2.1 1.1-4.4 1.1-6.8 0-3.3-.6-6.3-1.8-8.8s-2.9-4.6-5.1-6.3c-2.1-1.7-4.6-3-7.4-3.8-2.8-.8-5.8-1.3-8.9-1.3-3.1 0-6.1.4-8.8 1.1-2.7.8-5.2 1.9-7.3 3.5-2.1 1.6-3.9 3.6-5.4 5.9-1.4 2.4-2.4 5.2-2.9 8.4l-.2 1 12.4 1.1.2-.9c.6-3.1 1.9-5.5 4-7.3 2.1-1.7 4.7-2.6 8-2.6 1.5 0 3 .2 4.4.7s2.6 1.2 3.6 2c1 .9 1.8 1.9 2.3 3.2.6 1.2.9 2.7.9 4.2 0 1.3-.2 2.6-.6 3.8-.4 1.2-1 2.4-1.7 3.5s-1.5 2.2-2.4 3.3-1.7 2-2.6 2.9l-28.5 28V633h48v-10H518l21.5-20.6c1.5-1.5 3.1-3.3 4.5-4.9zm71.6-8.5c-.3-2.8-.8-5.6-1.5-8.3s-1.7-5.3-2.9-7.8-2.8-4.7-4.7-6.6c-1.9-1.9-4.2-3.4-6.8-4.5s-5.7-1.7-9.2-1.7-6.5.6-9.2 1.7c-2.6 1.1-4.9 2.6-6.8 4.5-1.9 1.9-3.5 4.1-4.7 6.6s-2.2 5.1-2.9 7.8-1.2 5.5-1.5 8.3-.4 5.5-.4 8c0 3.7.3 7.7 1 11.9.7 4.3 2 8.3 3.8 12 1.9 3.7 4.5 6.9 7.7 9.3 3.3 2.5 7.7 3.7 12.9 3.7s9.5-1.3 12.9-3.7c3.3-2.4 5.9-5.6 7.7-9.3s3.1-7.7 3.8-12c.7-4.2 1-8.2 1-11.9.2-2.5.1-5.2-.2-8zM604 605.1c-.3 3.1-.9 6-1.9 8.9-.9 2.8-2.4 5.1-4.2 7.1-1.8 1.8-4.1 2.7-7.2 2.7-3.1 0-5.4-.9-7.2-2.7-1.9-1.9-3.3-4.3-4.2-7.1-1-2.8-1.6-5.8-1.9-8.9-.3-3.1-.4-5.8-.4-8.1 0-1.6 0-3.3.1-5.3s.3-4 .7-6 .9-4 1.5-5.8 1.5-3.5 2.5-5c1-1.4 2.3-2.6 3.7-3.4 1.4-.8 3.2-1.2 5.2-1.2s3.8.4 5.2 1.2c1.5.8 2.7 2 3.7 3.4 1 1.5 1.9 3.1 2.5 5s1.2 3.8 1.5 5.8c.4 2 .6 4 .7 6 .1 2 .1 3.8.1 5.3 0 2.3-.1 5-.4 8.1zm24.2-27.1l6.8 8.2 12-10.9V633h12v-72h-10.1zm53.8-17v11h33.7l-28.8 61h13l28.3-62.2-.2-.2V561z"/></svg>