<?xml version="1.0" encoding="UTF-8" standalone="no"?>
<svg
   xmlns:dc="http://purl.org/dc/elements/1.1/"
   xmlns:cc="http://creativecommons.org/ns#"
   xmlns:rdf="http://www.w3.org/1999/02/22-rdf-syntax-ns#"
   xmlns:svg="http://www.w3.org/2000/svg"
   xmlns="http://www.w3.org/2000/svg"
   xmlns:sodipodi="http://sodipodi.sourceforge.net/DTD/sodipodi-0.dtd"
   xmlns:inkscape="http://www.inkscape.org/namespaces/inkscape"
   id="Layer_1"
   viewBox="468.6 510.3 290.8 167.5"
   version="1.1"
   sodipodi:docname="download.svg"
   inkscape:version="0.92.2 (5c3e80d, 2017-08-06)">
  <metadata
     id="metadata13">
    <rdf:RDF>
      <cc:Work
         rdf:about="">
        <dc:format>image/svg+xml</dc:format>
        <dc:type
           rdf:resource="http://purl.org/dc/dcmitype/StillImage" />
      </cc:Work>
    </rdf:RDF>
  </metadata>
  <defs
     id="defs11" />
  <sodipodi:namedview
     pagecolor="#ffffff"
     bordercolor="#666666"
     borderopacity="1"
     objecttolerance="10"
     gridtolerance="10"
     guidetolerance="10"
     inkscape:pageopacity="0"
     inkscape:pageshadow="2"
     inkscape:window-width="955"
     inkscape:window-height="686"
     id="namedview9"
     showgrid="false"
     inkscape:zoom="1"
     inkscape:cx="188.74998"
     inkscape:cy="83.75"
     inkscape:window-x="859"
     inkscape:window-y="235"
     inkscape:window-maximized="0"
     inkscape:current-layer="Layer_1" />
  <style
     id="style2">.st0{fill:none}.st1{fill:#6f0ec7}</style>
  <path
     class="st0"
     d="M604.8 605.1c.3-3.1.4-5.8.4-8.1 0-1.5 0-3.3-.1-5.3-.1-1.9-.3-3.9-.7-6-.4-2-.9-4-1.5-5.8s-1.5-3.5-2.5-5c-1-1.4-2.3-2.6-3.7-3.4-1.4-.8-3.2-1.2-5.2-1.2s-3.8.4-5.2 1.2c-1.5.8-2.7 2-3.7 3.4-1 1.5-1.9 3.1-2.5 5s-1.2 3.8-1.5 5.8c-.4 2-.6 4-.7 6-.1 2-.1 3.8-.1 5.3 0 2.3.1 5 .4 8.1.3 3.1.9 6 1.9 8.9.9 2.8 2.4 5.1 4.2 7.1 1.8 1.8 4.1 2.7 7.2 2.7 3.1 0 5.4-.9 7.2-2.7 1.9-1.9 3.3-4.3 4.2-7.1.9-2.8 1.6-5.8 1.9-8.9z"
     id="path4" />
  <flowRoot
     xml:space="preserve"
     id="flowRoot4517"
     style="fill:black;fill-opacity:1;stroke:none;font-family:Calibri;font-style:normal;font-weight:normal;font-size:64px;line-height:1.25;letter-spacing:0px;word-spacing:0px;-inkscape-font-specification:'Calibri, Normal';font-stretch:normal;font-variant:normal;text-anchor:start;text-align:start;writing-mode:lr;font-variant-ligatures:normal;font-variant-caps:normal;font-variant-numeric:normal;font-feature-settings:normal"><flowRegion
       id="flowRegion4519"><rect
         id="rect4521"
         width="206"
         height="260"
         x="38"
         y="-288.5" /></flowRegion><flowPara
       id="flowPara4523"></flowPara></flowRoot>  <text
     xml:space="preserve"
     style="font-style:normal;font-variant:normal;font-weight:normal;font-stretch:normal;font-size:96px;line-height:1.25;font-family:Calibri;-inkscape-font-specification:'Calibri, Normal';font-variant-ligatures:normal;font-variant-caps:normal;font-variant-numeric:normal;font-feature-settings:normal;text-align:start;letter-spacing:0px;word-spacing:0px;writing-mode:lr-tb;text-anchor:start;fill:#000000;fill-opacity:1;stroke:none;"
     x="552.59998"
     y="387.79999"
     id="text4527"><tspan
       sodipodi:role="line"
       id="tspan4525"
       x="552.59998"
       y="443.79999" /></text>
  <text
     xml:space="preserve"
     style="font-style:normal;font-variant:normal;font-weight:normal;font-stretch:normal;font-size:109.33333588px;line-height:1.25;font-family:Miramonte;-inkscape-font-specification:'Miramonte, Normal';font-variant-ligatures:normal;font-variant-caps:normal;font-variant-numeric:normal;font-feature-settings:normal;text-align:start;letter-spacing:0px;word-spacing:0px;writing-mode:lr-tb;text-anchor:start;fill:#000000;fill-opacity:1;stroke:none"
     x="497.59998"
     y="631.79999"
     id="text4531"><tspan
       sodipodi:role="line"
       id="tspan4529"
       x="497.59998"
       y="631.79999"
       style="font-style:normal;font-variant:normal;font-weight:normal;font-stretch:normal;font-size:109.33333588px;font-family:Miramonte;-inkscape-font-specification:'Miramonte, Normal';font-variant-ligatures:normal;font-variant-caps:normal;font-variant-numeric:normal;font-feature-settings:normal;text-align:start;writing-mode:lr-tb;text-anchor:start;fill:#6f0ec7;fill-opacity:1">2018</tspan></text>
</svg>
