<svg id="Layer_1" xmlns="http://www.w3.org/2000/svg" viewBox="0 0 1038.2 239.7"><style>.st0{fill:url(#SVGID_1_)}.st1{fill:url(#SVGID_2_)}.st2{fill:url(#SVGID_3_)}.st3{fill:url(#SVGID_4_)}.st4{fill:url(#SVGID_5_)}.st5{fill:url(#SVGID_6_)}.st6{fill:url(#SVGID_7_)}.st7{fill:url(#SVGID_8_)}.st8{fill:url(#SVGID_9_)}.st9{fill:url(#SVGID_10_)}</style><linearGradient id="SVGID_1_" gradientUnits="userSpaceOnUse" x1="115.396" y1="22.175" x2="115.396" y2="215.175"><stop offset="0" stop-color="#8c1ae9"/><stop offset="1" stop-color="#5303a6"/></linearGradient><path class="st0" d="M98.5 215.2H20.6v-193h77.9c71.8 0 111.7 36.3 111.7 96.5 0 59.3-40 96.5-111.7 96.5zm.9-163H53.6v133h45.8c50.9 0 78.3-24.8 78.3-66.7 0-42.1-27.4-66.3-78.3-66.3z"/><linearGradient id="SVGID_2_" gradientUnits="userSpaceOnUse" x1="338.606" y1="22.175" x2="338.606" y2="215.175"><stop offset="0" stop-color="#8c1ae9"/><stop offset="1" stop-color="#5303a6"/></linearGradient><path class="st1" d="M276.6 215.2v-193h116v30h-83v42h54v29h-54v62h91v30h-124z"/><linearGradient id="SVGID_3_" gradientUnits="userSpaceOnUse" x1="538.606" y1="22.175" x2="538.606" y2="215.175"><stop offset="0" stop-color="#8c1ae9"/><stop offset="1" stop-color="#5303a6"/></linearGradient><path class="st2" d="M479.6 215.2v-193h32v163h86v30h-118z"/><linearGradient id="SVGID_4_" gradientUnits="userSpaceOnUse" x1="705.106" y1="22.175" x2="705.106" y2="215.175"><stop offset="0" stop-color="#8c1ae9"/><stop offset="1" stop-color="#5303a6"/></linearGradient><path class="st3" d="M721.6 52.2v163h-33v-163h-72v-30h177v30h-72z"/><linearGradient id="SVGID_5_" gradientUnits="userSpaceOnUse" x1="916.874" y1="22.175" x2="916.874" y2="218.175"><stop offset="0" stop-color="#8c1ae9"/><stop offset="1" stop-color="#5303a6"/></linearGradient><path class="st4" d="M993.8 218.2h32.1l-98.2-196H906l-98.3 196H933l-16.2-32h-60.6c20.3-41 40.3-80.7 60.6-121l77 153z"/><linearGradient id="SVGID_6_" gradientUnits="userSpaceOnUse" x1="130.396" y1="-760.825" x2="130.396" y2="-567.825"><stop offset="0" stop-color="#8000e9"/><stop offset="1" stop-color="#5300aa"/></linearGradient><path class="st5" d="M113.5-567.8H35.6v-193h77.9c71.8 0 111.7 36.3 111.7 96.5 0 59.3-40 96.5-111.7 96.5zm.9-163H68.6v133h45.8c50.9 0 78.3-24.8 78.3-66.7 0-42.1-27.4-66.3-78.3-66.3z"/><linearGradient id="SVGID_7_" gradientUnits="userSpaceOnUse" x1="353.606" y1="-760.825" x2="353.606" y2="-567.825"><stop offset="0" stop-color="#8000e9"/><stop offset="1" stop-color="#5300aa"/></linearGradient><path class="st6" d="M291.6-567.8v-193h116v30h-83v42h54v29h-54v62h91v30h-124z"/><linearGradient id="SVGID_8_" gradientUnits="userSpaceOnUse" x1="553.606" y1="-760.825" x2="553.606" y2="-567.825"><stop offset="0" stop-color="#8000e9"/><stop offset="1" stop-color="#5300aa"/></linearGradient><path class="st7" d="M494.6-567.8v-193h32v163h86v30h-118z"/><linearGradient id="SVGID_9_" gradientUnits="userSpaceOnUse" x1="720.106" y1="-760.825" x2="720.106" y2="-567.825"><stop offset="0" stop-color="#8000e9"/><stop offset="1" stop-color="#5300aa"/></linearGradient><path class="st8" d="M736.6-730.8v163h-33v-163h-72v-30h177v30h-72z"/><linearGradient id="SVGID_10_" gradientUnits="userSpaceOnUse" x1="931.874" y1="-760.825" x2="931.874" y2="-564.825"><stop offset="0" stop-color="#8000e9"/><stop offset="1" stop-color="#5300aa"/></linearGradient><path class="st9" d="M1008.8-564.8h32.1l-98.2-196H921l-98.3 196H948l-16.2-32h-60.6c20.3-41 40.3-80.7 60.6-121l77 153z"/></svg>